# xmcd
#
# Track frame offsets: 
#        150
#        10180
#        21480
#        38445
#        52829
#        61427
#        70221
#
# Disc length: 1131 seconds
#
# Revision: 0
# Processed by: cddbd v1.5.2PL0 Copyright (c) Steve Scherf et al.
# Submitted via: ExactAudioCopy v0.95b3
#
DISCID=52046907
DTITLE=The Lovin' Spoonful  - Singles As and Bs - Bonus Disc 3
DYEAR=1900
DGENRE=
TTITLE0=Do You Believe In Magic (3,19,67)
TTITLE1=Daydream (3,19,67)
TTITLE2=Darling Be Home Soon (1,22,67)
TTITLE3=Good Time Music
TTITLE4=Almost Grown
TTITLE5=Don't Bank On It Baby
TTITLE6=Searchin'
EXTD=
EXTT0=
EXTT1=
EXTT2=
EXTT3=
EXTT4=
EXTT5=
EXTT6=
PLAYORDER=
